<svg xmlns="http://www.w3.org/2000/svg" viewBox="0 0 1280 800" role="img" aria-label="C16 이자카야 background">
  <defs>
    <linearGradient id="room" x1="0" x2="1" y1="0" y2="1">
      <stop offset="0" stop-color="#ecfeff"/>
      <stop offset=".52" stop-color="#ffffff"/>
      <stop offset="1" stop-color="#38bdf8" stop-opacity=".2"/>
    </linearGradient>
    <filter id="lift" x="-20%" y="-20%" width="140%" height="140%">
      <feDropShadow dx="0" dy="18" stdDeviation="14" flood-color="#0f2a3a" flood-opacity=".22"/>
    </filter>
  </defs>
  
    <rect width="1280" height="800" rx="0" fill="#ecfeff"/>
    <rect x="38" y="34" width="1204" height="716" rx="64" fill="url(#room)" stroke="#0f2a3a" stroke-width="10"/>
    <path d="M110 620C280 540 420 590 560 610c220 32 318-130 520-104 72 9 130 38 176 78" fill="none" stroke="#38bdf8" stroke-width="24" stroke-linecap="round" opacity=".18"/>
    <path d="M116 652h1038" stroke="#0f2a3a" stroke-width="12" stroke-linecap="round" opacity=".16"/>
  
      <rect x="96" y="132" width="260" height="360" rx="28" fill="#fff" stroke="#0f2a3a" stroke-width="8" opacity=".92"/>
      <path d="M124 210h204M124 306h204M124 402h204" stroke="#38bdf8" stroke-width="12" stroke-linecap="round" opacity=".55"/>
      <rect x="780" y="414" width="320" height="150" rx="30" fill="#fff" stroke="#0f2a3a" stroke-width="8"/>
      <circle cx="1032" cy="454" r="32" fill="#fb7185" opacity=".88"/>
      <path d="M832 474h124M832 520h196" stroke="#0f2a3a" stroke-width="10" stroke-linecap="round" opacity=".48"/>
      <text x="136" y="108" fill="#0f2a3a" font-size="38" font-weight="900" font-family="Arial, sans-serif">C16 이자카야</text>
  <g filter="url(#lift)">
    <g transform="translate(488 446) scale(1.08)">
      <circle cx="0" cy="-78" r="42" fill="#ffe1c7" stroke="#0f2a3a" stroke-width="6"/>
      <path d="M-42-76c8-48 74-58 92-6-28-12-54-10-92 6Z" fill="#222635" stroke="#0f2a3a" stroke-width="6" stroke-linejoin="round"/>
      <path d="M-44 34c8-70 80-70 92 0v96h-92Z" fill="#38bdf8" stroke="#0f2a3a" stroke-width="7" stroke-linejoin="round"/>
      <circle cx="-14" cy="-76" r="4" fill="#0f2a3a"/><circle cx="18" cy="-76" r="4" fill="#0f2a3a"/>
      <path d="M-10-54c12 8 26 8 38 0" stroke="#0f2a3a" stroke-width="5" stroke-linecap="round" fill="none"/>
    </g>
    <g transform="translate(716 468) scale(1.02)">
      <circle cx="0" cy="-78" r="42" fill="#ffe1c7" stroke="#0f2a3a" stroke-width="6"/>
      <path d="M-42-76c8-48 74-58 92-6-28-12-54-10-92 6Z" fill="#2b2434" stroke="#0f2a3a" stroke-width="6" stroke-linejoin="round"/>
      <path d="M-44 34c8-70 80-70 92 0v96h-92Z" fill="#ffffff" stroke="#0f2a3a" stroke-width="7" stroke-linejoin="round"/>
      <circle cx="-14" cy="-76" r="4" fill="#0f2a3a"/><circle cx="18" cy="-76" r="4" fill="#0f2a3a"/>
      <path d="M-10-54c12 8 26 8 38 0" stroke="#0f2a3a" stroke-width="5" stroke-linecap="round" fill="none"/>
    </g></g>
  <g filter="url(#lift)">
    <g transform="translate(183.16 480) scale(1.02)">
      <path d="M12 24 22 8l10 18 10-18 10 16c12 4 20 16 20 31 0 22-18 38-40 38S-8 77-8 55c0-15 8-27 20-31Z" fill="#f8fbff" stroke="#102033" stroke-width="5" stroke-linejoin="round"/>
      <circle cx="21" cy="56" r="4" fill="#102033"/><circle cx="47" cy="56" r="4" fill="#102033"/>
      <path d="M31 66h8M35 66v8M22 76c6 5 20 5 26 0" fill="none" stroke="#102033" stroke-width="4" stroke-linecap="round"/>
      <path d="M4 43h-18M6 53h-20M64 43h18M62 53h20" stroke="#102033" stroke-width="3" stroke-linecap="round" opacity=".55"/>
    </g>
    <g transform="translate(252.52 488.16) scale(1.02)">
      <path d="M2 34 20 10l10 20 24-2 10-18 16 26c7 7 11 16 11 28 0 22-18 38-44 38S4 86 4 64c0-12 4-22 12-29Z" fill="#e9f2ff" stroke="#102033" stroke-width="5" stroke-linejoin="round"/>
      <path d="M28 36c8-6 24-6 32 0" fill="none" stroke="#102033" stroke-width="4" stroke-linecap="round" opacity=".5"/>
      <circle cx="33" cy="63" r="4" fill="#102033"/><circle cx="59" cy="63" r="4" fill="#102033"/>
      <path d="M42 72h9M35 82c7 6 23 6 30 0" fill="none" stroke="#102033" stroke-width="4" stroke-linecap="round"/>
    </g></g>
  <rect x="78" y="578" width="460" height="102" rx="30" fill="#fff" stroke="#0f2a3a" stroke-width="8" opacity=".94"/>
  <text x="116" y="626" fill="#0f2a3a" font-size="30" font-weight="900" font-family="Arial, sans-serif">이자카야에서 주문</text>
  <text x="116" y="662" fill="#38bdf8" font-size="24" font-weight="800" font-family="Arial, sans-serif">SOLO · SHOP</text>
  <circle cx="1142" cy="118" r="46" fill="#fb7185" opacity=".9"/>
  <path d="M1076 118h132M1142 52v132" stroke="#0f2a3a" stroke-width="9" stroke-linecap="round" opacity=".32"/>
</svg>