<svg xmlns="http://www.w3.org/2000/svg" viewBox="0 0 1280 800" role="img" aria-label="COMPOSE quick practice background">
  <defs>
    <linearGradient id="bg" x1="0" x2="1" y1="0" y2="1">
      <stop offset="0" stop-color="#f7fee7"/>
      <stop offset=".58" stop-color="#fff"/>
      <stop offset="1" stop-color="#84cc16" stop-opacity=".2"/>
    </linearGradient>
    <filter id="lift" x="-20%" y="-20%" width="140%" height="140%">
      <feDropShadow dx="0" dy="18" stdDeviation="14" flood-color="#17311f" flood-opacity=".24"/>
    </filter>
  </defs>
  <rect width="1280" height="800" fill="url(#bg)"/>
  <rect x="38" y="34" width="1204" height="716" rx="64" fill="transparent" stroke="#17311f" stroke-width="10" opacity=".9"/>
  <path d="M102 628C260 542 414 588 584 616c238 38 340-134 552-102" fill="none" stroke="#84cc16" stroke-width="24" stroke-linecap="round" opacity=".16"/>
  <g filter="url(#lift)"><path d="M172 210h430v248H344L220 552v-94h-48Z" fill="#fff" stroke="#17311f" stroke-width="9" stroke-linejoin="round"/><text x="236" y="350" fill="#84cc16" font-size="60" font-weight="900" font-family="Arial, sans-serif">話す</text></g>
  <g filter="url(#lift)">
    <g transform="translate(726.24 448) scale(1.28)">
      <path d="M12 24 22 8l10 18 10-18 10 16c12 4 20 16 20 31 0 22-18 38-40 38S-8 77-8 55c0-15 8-27 20-31Z" fill="#f8fbff" stroke="#102033" stroke-width="5" stroke-linejoin="round"/>
      <circle cx="21" cy="56" r="4" fill="#102033"/><circle cx="47" cy="56" r="4" fill="#102033"/>
      <path d="M31 66h8M35 66v8M22 76c6 5 20 5 26 0" fill="none" stroke="#102033" stroke-width="4" stroke-linecap="round"/>
      <path d="M4 43h-18M6 53h-20M64 43h18M62 53h20" stroke="#102033" stroke-width="3" stroke-linecap="round" opacity=".55"/>
    </g>
    <g transform="translate(813.28 458.24) scale(1.28)">
      <path d="M2 34 20 10l10 20 24-2 10-18 16 26c7 7 11 16 11 28 0 22-18 38-44 38S4 86 4 64c0-12 4-22 12-29Z" fill="#e9f2ff" stroke="#102033" stroke-width="5" stroke-linejoin="round"/>
      <path d="M28 36c8-6 24-6 32 0" fill="none" stroke="#102033" stroke-width="4" stroke-linecap="round" opacity=".5"/>
      <circle cx="33" cy="63" r="4" fill="#102033"/><circle cx="59" cy="63" r="4" fill="#102033"/>
      <path d="M42 72h9M35 82c7 6 23 6 30 0" fill="none" stroke="#102033" stroke-width="4" stroke-linecap="round"/>
    </g></g>
  <rect x="760" y="118" width="382" height="172" rx="36" fill="#fff" stroke="#17311f" stroke-width="8" opacity=".94"/>
  <text x="804" y="184" fill="#17311f" font-size="42" font-weight="900" font-family="Arial, sans-serif">COMPOSE</text>
  <text x="804" y="242" fill="#84cc16" font-size="30" font-weight="900" font-family="Arial, sans-serif">뜻에서 일본어로</text>
  <circle cx="1122" cy="624" r="54" fill="#38bdf8" opacity=".86"/>
</svg>